<!-- icon666.com - MILLIONS vector ICONS FREE --><svg version="1.1" id="Capa_1" xmlns="http://www.w3.org/2000/svg" xmlns:xlink="http://www.w3.org/1999/xlink" x="0px" y="0px" viewBox="0 0 485.171 485.171" style="enable-background:new 0 0 485.171 485.171;" xml:space="preserve"><g><path d="M196.69,158.888c-18.599,0-33.734,15.129-33.734,33.729c0,18.6,15.135,33.729,33.734,33.729 c18.6,0,33.734-15.13,33.734-33.729C230.424,174.017,215.295,158.888,196.69,158.888z M196.69,210.146 c-9.666,0-17.534-7.863-17.534-17.529c0-9.666,7.868-17.528,17.534-17.528c9.667,0,17.534,7.862,17.534,17.528 C214.224,202.283,206.356,210.146,196.69,210.146z"></path><path d="M361.875,158.888c-18.595,0-33.734,15.129-33.734,33.729c0,18.6,15.14,33.729,33.734,33.729 c18.6,0,33.734-15.13,33.734-33.729C395.61,174.017,380.475,158.888,361.875,158.888z M361.875,210.146 c-9.666,0-17.534-7.863-17.534-17.529c0-9.666,7.868-17.528,17.534-17.528s17.534,7.862,17.534,17.528 C379.41,202.283,371.542,210.146,361.875,210.146z"></path><path d="M461.749,7.281c-3.76-0.77-7.567,1.224-9.07,4.762l-23.414,55.023c-1.112-0.095-2.215-0.143-3.312-0.143h-293.34 c-0.111,0-0.227,0-0.338,0L105.887,4.93c-1.498-3.544-5.3-5.542-9.07-4.762c-3.771,0.77-6.481,4.087-6.481,7.937v286.221 c0,23.314,18.969,42.277,42.277,42.277h104.44c-22.275,13.7-37.394,37.821-38.544,65.554c-7.958,8.253-41.27,39.957-84.617,41.613 c-28.994,1.092-56.917-11.459-83.173-37.342c-3.185-3.143-8.311-3.101-11.454,0.085c-3.132,3.185-3.095,8.316,0.09,11.454 c29.563,29.146,61.715,43.221,95.159,41.992c37.225-1.419,67.215-21.437,83.827-35.49v52.603c0,4.477,3.633,8.1,8.1,8.1 c4.472,0,8.1-3.623,8.1-8.1v-71.556c0-24.812,14.054-46.38,34.594-57.248v128.793c0,4.478,3.628,8.1,8.101,8.1 c4.472,0,8.1-3.622,8.1-8.1V342.324c4.498-0.991,9.154-1.556,13.948-1.556c6.418,0,12.599,0.976,18.452,2.711v133.576 c0,4.477,3.628,8.1,8.1,8.1s8.1-3.623,8.1-8.1V350.92c18.057,11.507,30.091,31.651,30.091,54.596v71.545c0,4.478,3.628,8.1,8.1,8.1 s8.101-3.622,8.101-8.1v-71.545c0-29.141-15.536-54.664-38.713-68.918h104.44c23.314,0,42.277-18.964,42.277-42.277V15.218 C468.23,11.368,465.519,8.057,461.749,7.281z M452.03,294.32c0,14.38-11.696,26.077-26.077,26.077h-293.34 c-14.381,0-26.077-11.702-26.077-26.077V47.824l13.136,30.866c1.461,3.438,5.089,5.432,8.77,4.819 c1.54-0.253,2.906-0.379,4.171-0.379h293.34c2.062,0,4.129,0.264,6.328,0.812c3.829,0.96,7.847-1.028,9.402-4.688l10.347-24.311 V294.32z"></path><path d="M305.834,273.042c-4.472,0-8.1,3.623-8.1,8.1c0,6.075-3.401,11.316-8.358,14.091c0.152-0.628,0.258-1.266,0.258-1.94 v-25.824l16.802-1.244c4.461-0.333,7.799-4.219,7.478-8.681c-0.322-4.456-4.124-7.73-8.681-7.478l-23.698,1.756l-23.699-1.756 c-4.435-0.301-8.348,3.017-8.68,7.478c-0.327,4.462,3.021,8.348,7.478,8.681l16.801,1.244v25.824c0,0.675,0.111,1.312,0.259,1.94 c-4.957-2.774-8.358-8.016-8.358-14.091c0-4.477-3.628-8.1-8.1-8.1c-4.473,0-8.101,3.623-8.101,8.1c0,17.872,14.534,32.4,32.4,32.4 c17.871,0,32.399-14.528,32.399-32.4C313.934,276.665,310.306,273.042,305.834,273.042z"></path></g></svg>